<?xml version="1.0" encoding="UTF-8"?>
<svg width="184px" height="276px" viewBox="0 0 184 276" version="1.1" xmlns="http://www.w3.org/2000/svg">
    <title>图形 2</title>
    <defs>
        <path d="M92,0 C142.810197,0 184,41.189803 184,92 C184,142.810197 142.810197,184 92,184 C41.189803,184 0,142.810197 0,92 C0,41.189803 41.189803,0 92,0 Z M100.78265,169.739923 C97.6589561,169.739923 95.1267017,172.272178 95.1267017,175.395872 C95.1267017,178.519566 97.6589561,181.05182 100.78265,181.05182 C103.906344,181.05182 106.438599,178.519566 106.438599,175.395872 C106.438599,172.272178 103.906344,169.739923 100.78265,169.739923 Z M125.209956,18.7368748 C124.095013,17.6938069 122.3456,17.7503914 121.301495,18.864297 L107.713549,33.3606244 C90.0014531,52.2568099 60.5156123,53.7586412 40.9752435,36.7598722 L40.9423961,36.7312972 C39.849223,35.7803122 38.2188421,35.7926654 37.1402046,36.7601059 C35.9595371,37.8190581 35.8608673,39.6346286 36.9198195,40.8152961 C54.1244468,59.9974125 52.855066,89.4097313 34.0617607,107.038244 L19.0214244,121.146393 C17.9823535,122.121064 17.8545578,123.725933 18.7262866,124.85276 C19.6601378,126.059889 21.3957449,126.281424 22.6028736,125.347573 C26.3321581,122.462548 30.5324052,120.24438 35.0178411,118.791177 C56.4973381,111.832196 79.5512797,123.6034 86.5102608,145.082897 L91.9218959,161.786377 C92.7522673,164.349389 95.3205473,165.930391 97.9828821,165.517444 C100.977504,165.052958 103.028584,162.248796 102.564098,159.254174 L102.500746,158.845732 C101.69963,153.680804 101.721519,148.421592 102.565601,143.263511 C106.980885,116.282225 132.432835,97.9888659 159.414121,102.404151 C162.062779,102.837584 164.634441,101.284573 165.483888,98.738656 C166.43965,95.8740969 164.892265,92.7771146 162.027706,91.8213525 L144.919798,86.1132867 C140.586155,84.6673637 136.525878,82.5044559 132.908112,79.714667 C115.04934,65.9431294 111.735983,40.3016976 125.50752,22.4429263 C126.377049,21.3153317 126.247806,19.7116996 125.209956,18.7368748 Z M12.2328887,126.108444 C10.6710417,126.108444 9.40491445,127.374571 9.40491445,128.936418 C9.40491445,130.498265 10.6710417,131.764392 12.2328887,131.764392 C13.7947358,131.764392 15.060863,130.498265 15.060863,128.936418 C15.060863,127.374571 13.7947358,126.108444 12.2328887,126.108444 Z M99.8440778,54.0566938 C101.271304,53.6520226 102.784611,54.4250436 103.28066,55.8440159 L103.404996,56.2012459 C103.732609,57.1330284 104.013679,57.9033917 104.248205,58.5123358 C108.242588,68.8836979 114.035778,78.6720686 121.585425,87.359839 C121.926297,87.7520978 122.352028,88.2275818 122.862535,88.7863674 C122.953442,88.8860183 123.0371,88.9920489 123.112865,89.1036464 C123.989672,90.3951226 123.653517,92.1528636 122.361474,93.0288367 C121.876491,93.3578842 121.462309,93.6437581 121.118929,93.8864584 C111.754305,100.50535 103.474721,108.626725 96.6384159,117.973518 C96.2153037,118.55201 95.6902489,119.297554 95.0636378,120.210417 C94.9961563,120.308448 94.9225505,120.402119 94.84326,120.490871 C93.8032639,121.654963 92.0164977,121.755562 90.8524058,120.715566 L90.5471842,120.443667 C89.6478342,119.644737 88.8965054,118.995401 88.2931978,118.495659 C79.9806534,111.610064 70.6168595,106.124348 60.595961,102.278359 C59.965806,102.036507 59.1541556,101.741876 58.1611269,101.394131 L58.1492193,101.389927 C56.6784023,100.867052 55.9099439,99.2508448 56.43379,97.7803728 C56.7801292,96.8038391 57.0556979,95.9988619 57.2604962,95.3654411 C60.3858568,85.6990084 62.059318,75.6417385 62.2699416,65.5232146 C62.284955,64.8019597 62.2875404,63.8735118 62.27705,62.7378768 L62.2769596,62.7022655 C62.2828321,61.1412828 63.5530192,59.8806169 65.1140019,59.8864894 L65.5089462,59.8871423 C66.4092565,59.8885629 67.1610085,59.881996 67.7642024,59.8674416 C77.8036513,59.6252015 87.7779464,57.9603673 97.3739165,54.8896397 C97.9810601,54.6953527 98.7497584,54.4355706 99.6794788,54.1087705 Z M175.729056,95.6637695 C172.750527,95.6637695 170.335953,98.077025 170.335953,101.053926 C170.335953,104.030828 172.750527,106.444083 175.729056,106.444083 C178.707585,106.444083 181.12216,104.030828 181.12216,101.053926 C181.12216,98.077025 178.707585,95.6637695 175.729056,95.6637695 Z M32.0287086,27.843697 C30.4668616,27.843697 29.2007344,29.1098242 29.2007344,30.6716713 C29.2007344,32.2335184 30.4668616,33.4996456 32.0287086,33.4996456 C33.5905557,33.4996456 34.8566829,32.2335184 34.8566829,30.6716713 C34.8566829,29.1098242 33.5905557,27.843697 32.0287086,27.843697 Z M130.269253,10.3068325 C128.707406,10.3068325 127.441279,11.5729597 127.441279,13.1348068 C127.441279,14.6966538 128.707406,15.962781 130.269253,15.962781 C131.8311,15.962781 133.097227,14.6966538 133.097227,13.1348068 C133.097227,11.5729597 131.8311,10.3068325 130.269253,10.3068325 Z" id="path-2"/>
        <linearGradient x1="48.5606318%" y1="37.4996722%" x2="50%" y2="50%" id="linearGradient-4">
            <stop stop-color="#FFFFFF" stop-opacity="0.69787837" offset="0%"/>
            <stop stop-color="#FFFFFF" stop-opacity="0" offset="100%"/>
        </linearGradient>
    </defs>
    <g id="图形-2" stroke="none" fill="none" fill-rule="evenodd">
        <g id="编组备份-12" opacity="0.8" stroke-width="1">
            <use id="形状结合" fill="#FFFFFF" href="#path-2"/>
        </g>
        <path d="M92,184 C142.810197,184 184,225.189803 184,276 L162.489821,276.001206 C165.055463,274.881699 166.386894,271.967785 165.483888,269.261344 C164.634441,266.715427 162.062779,265.162416 159.414121,265.595849 C132.432835,270.011134 106.980885,251.717775 102.565601,224.736489 C101.721519,219.578408 101.69963,214.319196 102.500746,209.154268 L102.564098,208.745826 C103.028584,205.751204 100.977504,202.947042 97.9828821,202.482556 C95.3205473,202.069609 92.7522673,203.650611 91.9218959,206.213623 L86.5102608,222.917103 C79.5512797,244.3966 56.4973381,256.167804 35.0178411,249.208823 C30.5324052,247.75562 26.3321581,245.537452 22.6028736,242.652427 C21.3957449,241.718576 19.6601378,241.940111 18.7262866,243.14724 C17.8545578,244.274067 17.9823535,245.878936 19.0214244,246.853607 L34.0617607,260.961756 C38.7464604,265.356102 42.3422588,270.48267 44.8344394,276.000476 L0,276 L0.0123253715,274.478612 C0.8247581,224.370126 41.697905,184 92,184 Z M90.8524058,247.284434 C92.0164977,246.244438 93.8032639,246.345037 94.84326,247.509129 C94.9225505,247.597881 94.9961563,247.691552 95.0636378,247.789583 C95.6902489,248.702446 96.2153037,249.44799 96.6384159,250.026482 C103.474721,259.373275 111.754305,267.49465 121.118929,274.113542 C121.462309,274.356242 121.876491,274.642116 122.361474,274.971163 C122.762317,275.242925 123.071157,275.599555 123.280317,276.000802 L58.2856981,276.000466 C57.9633596,274.873618 57.62162,273.751479 57.2604962,272.634559 C57.0556979,272.001138 56.7801292,271.196161 56.43379,270.219627 C55.9099439,268.749155 56.6784023,267.132948 58.1492193,266.610073 L58.1611269,266.605869 C59.1541556,266.258124 59.965806,265.963493 60.595961,265.721641 C70.6168595,261.875652 79.9806534,256.389936 88.2931978,249.504341 C88.8965054,249.004599 89.6478342,248.355263 90.5471842,247.556333 Z M175.729056,261.555917 C172.750527,261.555917 170.335953,263.969172 170.335953,266.946074 C170.335953,269.922975 172.750527,272.336231 175.729056,272.336231 C178.707585,272.336231 181.12216,269.922975 181.12216,266.946074 C181.12216,263.969172 178.707585,261.555917 175.729056,261.555917 Z M12.2328887,236.235608 C10.6710417,236.235608 9.40491445,237.501735 9.40491445,239.063582 C9.40491445,240.625429 10.6710417,241.891556 12.2328887,241.891556 C13.7947358,241.891556 15.060863,240.625429 15.060863,239.063582 C15.060863,237.501735 13.7947358,236.235608 12.2328887,236.235608 Z M100.78265,186.94818 C97.6589561,186.94818 95.1267017,189.480434 95.1267017,192.604128 C95.1267017,195.727822 97.6589561,198.260077 100.78265,198.260077 C103.906344,198.260077 106.438599,195.727822 106.438599,192.604128 C106.438599,189.480434 103.906344,186.94818 100.78265,186.94818 Z" id="形状结合-倒影" fill="url(#linearGradient-4)"/>
    </g>
</svg>
